<?xml version="1.0"?><svg width="640" height="480" xmlns="http://www.w3.org/2000/svg">
 <title>pink tilted tiara</title>
 <metadata id="metadata2401">image/svg+xmlCrown with cross on the topcrown religious cross king</metadata>
 <g>
  <title>Layer 1</title>
  <path transform="rotate(25 344.286 251.533)" d="m484.75589,214.118988c-34.699829,-10.895737 -70.108765,-16.071625 -105.852173,-18.642395c9.892181,-20.098846 -0.078186,-37.278046 -19.197083,-43.335709l-0.909027,-9.01239l8.315887,0l7.621368,6.234192c12.89566,-12.101135 10.993927,-23.598473 -1.038086,-34.663376l-3.465271,5.546913l-9.359497,0.339989l0,-4.501579l5.886963,-6.932312c-14.850067,-7.385048 -30.218292,-7.499573 -46.104675,-0.339989l8.315918,4.850677l3.117981,7.27951l-9.701263,0l-6.583252,-5.199669c-10.67392,10.632225 -10.441193,23.344231 0.689026,38.137749l5.801514,-9.957611l8.06134,0.256348l-0.561768,8.230438c-23.22229,10.424866 -28.236542,25.013306 -15.035492,43.768417c-38.939575,1.329193 -76.024765,8.843323 -111.853638,20.582474c-14.175552,-15.631668 -29.521927,-11.782974 -41.361267,-35.21254c2.458038,28.563812 -6.626877,36.845169 -5.808746,54.236908c-13.244705,6.101471 -24.934967,14.800964 -35.061653,26.100342c-18.906197,-17.569916 -35.779793,-23.96228 -52.597,-29.998306c14.544617,21.298965 22.07328,43.370255 33.116302,65.059555c-1.229042,9.154022 1.747169,16.035461 14.026474,17.918976l31.552727,46.750092c-3.763397,9.610352 0.909042,18.180756 10.517593,19.480682l13.244705,17.918976c54.542343,-8.479492 109.482834,-15.013672 164.025192,-15.319092c63.1073,-0.341827 124.27652,5.53241 188.945587,13.364685l12.462952,-20.644287c10.255737,-0.645416 16.619019,-9.346741 11.292053,-19.864319l30.772827,-45.579224c14.417297,-0.647247 16.235413,-7.137787 14.026428,-20.255219l28.436584,-62.332443c-16.100891,11.817505 -35.716187,16.228165 -48.308167,28.436752c-9.899414,-10.128708 -21.65332,-17.790085 -34.670776,-23.764297c1.818115,-23.498657 -7.272278,-32.58905 -7.399597,-51.815216c-13.564636,18.358948 -20.511505,7.890457 -45.373749,32.88176l0.012756,-0.005463zm14.971863,87.969177c5.019745,-7.42868 -0.007294,-8.174072 -4.381592,-3.707062c-13.87738,19.573425 -8.47403,33.030853 12.817474,40.154053c29.196533,3.607086 37.51239,-8.99765 45.182861,-22.61142c2.932556,-5.696045 0.759949,-9.14856 -3.359802,-1.683533c-9.012207,9.026733 -7.514099,16.880829 -26.77301,19.835236c4.296143,-12.606567 6.83783,-34.281677 22.562317,-57.623444c4.821594,-6.798004 10.617615,-6.214386 16.404541,-5.959869c-8.834045,-9.408356 -20.509705,-16.759018 -32.987183,-23.542282l-4.097961,6.754166c18.351685,2.158051 24.87677,13.699219 12.413818,32.837769c-5.717834,17.137207 -30.054657,30.745514 -29.678314,46.59552c-13.713745,-5.070618 -15.993622,-13.464691 -8.095886,-31.034607l-0.007263,-0.014526zm-121.7258,-86.6418c1.732635,5.930389 0.474548,11.910049 -3.772491,17.938797c27.158447,-10.49559 48.499054,-2.507126 48.620819,23.891541c-0.987213,18.926025 -24.565857,36.999176 -18.720734,62.246826c-20.887878,-2.514404 -26.782074,-11.504791 -25.680359,-33.556274c-3.750671,-10.40448 -15.851807,-7.264679 -12.059296,8.606781c8.074097,35.887054 56.544067,47.186401 88.404053,21.596954c7.086884,-5.808746 11.164856,-12.853821 12.228424,-21.142426c0.058136,-10.08252 -7.932281,-8.804962 -11.468475,4.5961c-3.536194,13.401062 -13.061066,22.086029 -32.378143,23.095062c9.666718,-17.242676 3.296173,-34.245331 4.950623,-51.367432c5.241516,-26.895035 30.005554,-44.442932 51.49527,-29.543777l0.498108,-12.406769c-29.914612,-9.979416 -71.183167,-14.302811 -102.117798,-13.96283l0,0.007446zm-65.074493,-0.681778c-1.641693,5.957657 -0.292664,11.917511 4.047089,17.882629c-27.312988,-10.085068 -48.53363,-1.76918 -48.242737,24.629486c1.270874,18.911469 23.087799,39.428131 17.626282,64.768494c20.844269,-2.834381 30.005585,-16.469971 28.592926,-36.417908c3.592529,-10.460846 12.968323,-7.117432 10.793945,8.095886c-7.519623,35.997955 -55.813202,48.037262 -88.062286,22.938721c-7.172302,-5.696045 -11.362991,-12.684753 -12.548355,-20.951538c-0.214523,-10.077606 7.805008,-8.926788 11.539337,4.417908c1.356293,15.262756 13.393799,21.887848 32.725418,22.605988c-9.935791,-17.095398 -3.819794,-34.188965 -5.730621,-51.281982c-5.652374,-26.809555 -25.743958,-38.86142 -51.942459,-28.756714l-0.689056,-12.399292c36.332474,-9.813995 70.705063,-15.118973 101.897812,-15.517136l-0.007294,-0.014542zm-118.771378,89.752533c-2.067139,-6.690521 0.992676,-7.925018 4.381577,-3.707062c13.05925,19.160736 4.936081,31.254578 -12.81929,40.14679c-29.196503,3.608887 -38.548691,-8.650421 -46.22644,-22.264191c-2.932556,-5.696045 -0.410889,-9.146729 3.707062,-1.683533c9.012207,9.026764 6.477814,19.658875 34.748932,22.264191c-19.89888,-18.848022 -14.117371,-37.056061 -29.849197,-60.399841c-4.821564,-6.797791 -10.615768,-6.21402 -16.404541,-5.952362c10.483047,-8.863129 21.638779,-16.389984 32.989029,-23.542313l3.408905,5.361526c-18.351669,4.588806 -24.182251,15.084595 -11.71933,34.223145c5.717865,17.137177 30.056458,30.745514 29.680115,46.602783c10.935745,-4.728821 15.991837,-13.464691 8.095917,-31.034607" id="path16" fill-rule="evenodd" fill="#7f7f7f"/>
  <path transform="rotate(25 345.545 250.606)" d="m159.740005,241.417007l-38.123009,26.653l3.707001,5.05899l38.123009,-27.662994l-3.707001,-4.048996zm374.139999,-1.910004c12.477966,4.26799 24.033997,11.78299 34.671021,22.534988l-4.154053,4.501007c-10.97998,-11.147995 -21.951965,-17.852997 -32.930969,-22.533005l2.421997,-4.502991l-0.007996,0zm-160.176025,-39.529007l1.038025,8.31601l4.501953,0.341995c35.005035,0.744995 70.047028,5.134003 102.281036,16.987991l1.725983,-5.199997c-33.485962,-11.369995 -70.528992,-17.405991 -109.559998,-20.453003l0.013,0.007004zm-167.035995,21.873001c30.595001,-11.050003 68.41301,-17.718994 109.285019,-21.929001c0.987,3.117996 1.653992,5.276001 0.077972,8.401001c-37.192017,1.945007 -71.891983,8.061005 -107.380997,18.572006l-1.988998,-5.044006l0.007004,0zm115.029984,-29.5l22.881989,-27.386002l23.919037,28.430008c14.105011,-14.147003 4.701019,-36.929001 -23.919037,-36.396011c-26.126953,1.363007 -36.353943,19.578003 -22.881989,35.359009l0,-0.007004zm-5.197998,-66.914001l4.848999,2.294006l17.677032,0.126999l-0.689026,-11.441002l-5.971985,-5.581001c6.456024,-3.614998 17.06601,-2.953995 25.608978,-0.341995l-5.76001,5.931l-0.040955,11.440994l13.563995,0.084999l7.278015,-4.935997c3.635986,6.527008 3.635986,12.535995 0,18.024994l-5.198059,-3.465988l-15.594971,0.339996l0,7.279999l2.074005,7.968002l-18.026031,0.341995l2.771027,-15.595001l-17.678009,0.686996l-4.849976,3.460007c-2.591034,-6.065002 -2.591034,-11.612 0,-16.640999l-0.013,0.021996l0,0l0,0l-0.000031,0zm-147.825989,78.248001c15.730011,9.764999 37.803009,11.186996 39.740997,47.199005c26.093002,-18.669998 41.774002,1.39299 48.314026,18.231995c4.773987,12.285004 -3.458023,27.212006 4.339966,48.339996c-10.432983,-1.817993 -16.888992,-8.940979 -19.373978,-21.362c-5.625,-20.692993 -28.485001,-15.565979 -21.362015,6.455994c15.063004,28.535004 41.531982,34.203003 65.209015,31.58902c26.007019,-2.869019 48.669983,-20.539001 46.56601,-49.471008c-7.115997,-15.062988 -14.898987,-15.566986 -23.348999,-1.484009c-4.966034,10.432007 2.477966,27.320007 -14.901001,31.298004c1.15799,-20.199005 -20.532043,-40.402985 -20.368042,-56.139984c3.636017,-26.746017 23.016998,-29.893005 53.158997,-16.888016c-16.562988,-33.037994 3.968048,-51.418991 18.875,-67.070999c15.89502,17.223007 31.958038,31.794998 18.877045,66.572998c35.651978,-19.316986 62.105011,1.952011 52.526001,21.53302c-7.805023,15.957001 -21.646027,40.500977 -19.239044,51.985992c-26.164001,-5.128998 0.326019,-40.574005 -27.817963,-40.738007c-19.537018,4.802002 -15.39801,31.298004 6.455963,48.194c12.25,9.268005 27.156036,13.243988 44.71402,11.916992c21.538025,-0.376007 38.370026,-13.345001 51.969025,-34.927002c4.723999,-13.954987 -11.568024,-22.733002 -18.200989,-10.382996c-4.559021,15.774017 -11.392029,26.425995 -24.047058,29.606995c4.687012,-16.823975 1.620056,-37.020996 4.958038,-53.510986c10.488007,-23.365997 26.382019,-28.742004 47.672974,-16.115005c2.011047,-38.641998 28.679016,-39.173996 41.334045,-53.718994c2.429016,18.869995 16.631958,28.770996 -9.517029,59.968994c20.66803,2.720016 29.52301,12.754013 12.394043,38.883011c-6.620056,11.135986 -18.30307,19.914001 -23.914063,31.388977c-11.014008,-11.447998 1.578003,-16.816986 2.373047,-25.232971c2.372955,-13.77002 -13.799042,-11.795013 -22.215027,7.946991c-2.883972,22.847992 6.655975,37.833008 43.528015,35.510986c14.317993,-5.148987 24.984009,-13.587006 30.310974,-26.830994c2.429016,-7.399994 -0.867004,-11.769012 -7.882996,-9.049011c-7.294006,7.791016 -16.625977,25.042023 -21.901978,23.393005c3.416016,-11.382996 8.513977,-23.441986 11.937012,-34.826996c7.151978,-20.701996 17.294006,-26.459991 30.432983,-17.278992c3.315979,-17.34201 21.218994,-26.283005 33.505005,-31.858002l-19.208984,42.213989c-17.358032,-2.656006 -17.216003,11.27002 -13.558044,18.740997l-30.217957,46.453003c-15.845032,2.138 -21.760986,10.404999 -11.776001,18.841003l-6.612,16.43399c-117.40802,-24.763977 -234.183044,-24.912994 -350.264023,1.981018l-9.437012,-13.40799c12.746002,-9.601013 5.460999,-20.531006 -9.440002,-20.864014l-32.291,-45.212006c9.025009,-9.317993 1.526001,-21.681 -14.403,-19.869995c-6.414001,-14.075012 -8.784599,-25.46701 -19.25309,-42.242996c16.895088,4.794998 32.007095,14.751999 35.643089,32.804001c9.269012,-11.752014 19.212006,-7.612 29.808014,12.412994c4.800995,12.911987 3.869995,23.473999 14.403,38.748993c-14.901001,-3.30899 -15.894012,-15.567993 -23.841003,-23.350983c-5.796005,-5.298004 -14.076996,0.326996 -8.445007,9.438995c22.272003,32.127991 56.886002,37.427002 73.525009,5.462006c3.806992,-14.403015 -0.993011,-25.503998 -14.403,-33.287018c-8.939011,0 -10.432007,6.455994 -5.958008,14.899017c4.630997,6.455994 7.776001,10.929993 1.98201,20.865997c-12.008011,-20.468018 -23.69101,-26.959015 -29.807007,-37.825012c-10.182999,-18.109985 -7.684006,-30.423981 17.882004,-32.221985c-23.264008,-24.422012 -12.99501,-35.352005 -9.436996,-54.151016l0.006989,0.007004zm326.18103,59.195007c5.710999,1.263 8.899994,5.462006 7.093994,9.345001c-1.803009,3.877991 -7.938995,6.015991 -13.654999,4.751984c-5.710999,-1.264984 -8.899994,-5.460999 -7.096008,-9.338989c1.804993,-3.877991 7.93399,-6.015991 13.649994,-4.751007l0.007019,-0.006989zm1.513,-4.069c8.557983,1.945984 13.336975,8.408997 10.631989,14.380981c-2.700012,5.973022 -11.895996,9.259003 -20.460999,7.314026c-8.557007,-1.945007 -13.337006,-8.40802 -10.631989,-14.381012c2.699982,-5.971985 11.895996,-9.260986 20.453979,-7.313995l0.007019,0zm83.113007,34.238007c4.268982,0 7.755981,2.953979 7.755981,6.575989c0,3.621002 -3.487,6.575989 -7.755981,6.575989c-4.268005,0 -7.756042,-2.954987 -7.756042,-6.575989c0,-3.622009 3.488037,-6.575989 7.756042,-6.575989zm-42.85199,65.455994c4.266968,0 7.753967,2.95401 7.753967,6.578003c0,3.621002 -3.487,6.575989 -7.753967,6.575989c-4.269043,0 -7.756042,-2.954987 -7.756042,-6.575989c0,-3.623993 3.487,-6.578003 7.756042,-6.578003zm-73.554016,-19.003998c7.619995,0.681 13.833984,6.548004 13.833984,13.04599c0,6.505005 -6.213989,11.25 -13.833984,10.569c-7.614014,-0.682007 -13.828003,-6.549011 -13.828003,-13.053986c0,-6.498016 6.213989,-11.25 13.828003,-10.561005zm-0.363007,3.828003c5.326996,0.47699 9.673981,4.579987 9.673981,9.125c0,4.54599 -4.346985,7.863983 -9.673981,7.386993c-5.325012,-0.476013 -9.673004,-4.580994 -9.673004,-9.127014c0,-4.544983 4.347992,-7.860992 9.673004,-7.384979zm-116.045013,-98.532013c10.220001,0 18.550018,6.059998 18.550018,13.493988c0,7.429016 -8.330017,13.494019 -18.550018,13.494019c-10.218994,0 -18.557007,-6.058014 -18.557007,-13.494019c0,-7.428986 8.338013,-13.493988 18.557007,-13.493988zm-0.510986,3.367004c7.705994,0 13.997986,4.395996 13.997986,9.786987c0,5.383026 -6.285004,9.779999 -13.997986,9.779999c-7.705017,0 -13.997009,-4.396973 -13.997009,-9.779999c0,-5.390991 6.285004,-9.786987 13.997009,-9.786987zm0.17099,81.657013c9.105011,0 16.533997,5.602997 16.533997,12.477997c0,6.875977 -7.423004,12.479004 -16.533997,12.479004c-9.105011,0 -16.53299,-5.603027 -16.53299,-12.479004c0,-6.875 7.42099,-12.477997 16.53299,-12.477997zm-0.341003,4.048981c6.313995,0 11.470001,4.011993 11.470001,8.94101c0,4.921997 -5.148987,8.941986 -11.470001,8.941986c-6.312988,0 -11.468994,-4.013 -11.468994,-8.941986c0,-4.92099 5.148987,-8.94101 11.468994,-8.94101zm-144.408997,-70.514008c6.128998,0 11.136002,3.785004 11.136002,8.429016c0,4.644989 -5,8.429993 -11.136002,8.429993c-6.12999,0 -11.12999,-3.785004 -11.12999,-8.429993c0,-4.644012 5,-8.429016 11.12999,-8.429016zm0.503998,-3.069c8.643005,0 15.688004,5.335022 15.688004,11.881012c0,6.541992 -7.044998,11.881989 -15.688004,11.881989c-8.635986,0 -15.687988,-5.332977 -15.687988,-11.881989c0,-6.539001 7.044998,-11.881012 15.687988,-11.881012zm28.173004,80.301025c7.805008,0 14.167999,5.340973 14.167999,11.880981c0,6.541016 -6.362991,11.881012 -14.167999,11.881012c-7.804993,0 -14.167999,-5.332001 -14.167999,-11.881012c0,-6.540009 6.363007,-11.880981 14.167999,-11.880981zm0.171005,4.082977c5.481003,0 9.947998,3.558014 9.947998,7.925018c0,4.362 -4.466995,7.927002 -9.947998,7.927002c-5.475998,0 -9.949997,-3.558014 -9.949997,-7.927002c0,-4.367004 4.466995,-7.925018 9.949997,-7.925018zm-73.050003,18.337006c4.268005,0 7.755005,2.769012 7.755005,6.178009c0,3.403992 -3.479004,6.179993 -7.755005,6.179993c-4.268997,0 -7.755997,-2.770996 -7.755997,-6.179993c0,-3.401001 3.487,-6.178009 7.755997,-6.178009zm-45.046997,-67.822998c3.990997,0 7.250999,3.153992 7.250999,7.024994c0,3.871002 -3.260002,7.02301 -7.250999,7.02301c-3.992004,0 -7.252007,-3.152008 -7.252007,-7.02301c0,-3.871002 3.260002,-7.024994 7.252007,-7.024994" id="path18" fill-rule="evenodd" fill="#e8c519"/>
 </g>
</svg>